<svg xmlns="http://www.w3.org/2000/svg" viewBox="0 0 988 252" version="1.1">
	<path d="M 68.364 26.648 L 69.046 53.296 84.273 67.944 C 92.648 76, 106.925 89.640, 116 98.254 L 132.500 113.917 132.766 86.759 L 133.033 59.601 102.766 29.835 C 80.247 7.687, 71.883 0.060, 70.091 0.034 L 67.681 0 68.364 26.648 M 180.247 30.117 L 150 60.233 150 86.700 C 150 103.456, 150.358 113.044, 150.975 112.833 C 151.980 112.490, 171.949 93.720, 198.804 67.874 L 214.109 53.146 214.712 26.573 L 215.315 0 212.905 0 C 211.081 0, 203.139 7.324, 180.247 30.117 M 461.558 40.953 C 450.866 48.001, 451.782 63.926, 463.218 69.810 C 474.233 75.477, 487 67.526, 487 55 C 487 49.688, 483.747 43.427, 479.710 40.965 C 475.302 38.277, 465.626 38.271, 461.558 40.953 M 965.875 41.439 C 956.151 48.047, 956.984 64.245, 967.329 69.703 C 971.779 72.051, 979.756 71.910, 984.041 69.408 C 988.228 66.963, 988.674 65.045, 988 52.367 C 987.515 43.247, 987.408 42.896, 984.500 40.985 C 979.971 38.008, 970.587 38.237, 965.875 41.439 M 532.886 55.467 C 527.049 57.253, 521.761 59.030, 521.136 59.416 C 520.379 59.884, 520 64.602, 520 73.559 L 520 87 510 87 L 500 87 500 100 L 500 113 509.919 113 L 519.838 113 520.188 146.750 C 520.577 184.389, 521.173 188.337, 527.590 195.834 C 534.613 204.039, 549.506 208.134, 566 206.396 L 574.500 205.500 574.783 194.242 L 575.066 182.983 566.705 183.626 C 557.021 184.370, 552.052 183.153, 549.016 179.293 C 547.091 176.846, 547 175.298, 547 144.893 L 547 113.056 560.750 112.778 L 574.500 112.500 574.500 100 L 574.500 87.500 560.750 87.222 L 547 86.944 547 69.472 C 547 49.113, 548.569 50.670, 532.886 55.467 M 1 62.879 C 1 63.362, 13.672 76.637, 29.159 92.379 L 57.318 121 85.742 121 C 101.376 121, 114.017 120.640, 113.833 120.199 C 113.650 119.759, 100.097 106.776, 83.715 91.349 L 53.929 63.300 43.309 62.650 C 27.907 61.707, 1 61.853, 1 62.879 M 237.222 62.936 L 228.945 63.500 198.631 92 L 168.317 120.500 196.909 120.805 L 225.500 121.110 253.724 92.305 C 269.247 76.462, 281.959 63.163, 281.974 62.750 C 282.003 61.919, 250.218 62.051, 237.222 62.936 M 376.265 86.542 C 356.548 91.851, 344.515 109.103, 347.869 127.250 C 350.895 143.618, 360.755 151.302, 387.986 158.515 C 403.110 162.521, 409.139 165.508, 410.957 169.896 C 417.506 185.706, 384.701 192.481, 371.634 178.017 C 369.698 175.873, 367.415 172.769, 366.561 171.119 L 365.010 168.118 354.255 173.213 C 348.340 176.014, 343.341 178.434, 343.148 178.589 C 342.083 179.442, 348.200 189.202, 352.500 193.512 C 362.176 203.211, 375.068 208, 391.500 208 C 423.793 208, 443.985 187.518, 436.510 162.345 C 432.372 148.413, 423.287 142.403, 395.079 134.939 C 380.487 131.078, 376.042 128.707, 374.168 123.781 C 372.291 118.851, 374.847 113.554, 380.522 110.609 C 385.926 107.804, 396.016 107.871, 401.568 110.747 C 405.491 112.780, 412.290 119.370, 413.162 121.985 C 413.450 122.851, 416.587 121.578, 423.042 117.975 C 435.926 110.784, 435.288 111.486, 432.999 106.998 C 428.211 97.614, 415.742 88.576, 404.201 86.125 C 397.031 84.603, 382.669 84.817, 376.265 86.542 M 703.500 86.389 C 691.386 89.342, 676.570 100.793, 670.695 111.744 C 664.638 123.034, 662.764 130.445, 662.254 145.123 C 661.477 167.456, 665.500 178.785, 678.925 192.073 C 697.592 210.549, 722.954 213.475, 742.653 199.426 C 746.037 197.012, 749.646 193.884, 750.673 192.474 L 752.541 189.910 752.394 194.705 C 752.313 197.342, 752.467 200.963, 752.737 202.750 L 753.227 206 765.613 206 L 778 206 778 146.500 L 778 87 765.500 87 L 753 87 753 94.957 L 753 102.914 748.394 97.990 C 742.759 91.966, 737.019 88.500, 729.380 86.511 C 722.543 84.730, 710.537 84.673, 703.500 86.389 M 880.045 86.026 C 861.959 89.842, 847.781 106.770, 842.912 130.364 C 837.824 155.016, 842.796 175.895, 857.546 191.827 C 874.861 210.529, 900.490 213.497, 919.414 198.993 L 925.901 194.020 926.200 199.760 L 926.500 205.500 934 205.500 L 941.500 205.500 941.762 166.086 C 942.014 128.038, 942.092 126.624, 944.012 125.279 C 945.866 123.981, 945.999 122.724, 945.992 106.693 L 945.984 89.500 943.293 88.250 C 940.470 86.939, 927.290 86.705, 923 87.890 C 920.951 88.455, 920.410 89.350, 920 92.851 L 919.500 97.122 915.739 93.666 C 909.536 87.966, 903.872 85.868, 893.567 85.452 C 888.580 85.251, 882.495 85.509, 880.045 86.026 M 638.500 88.031 C 632.218 90.451, 627.077 94.659, 623.142 100.600 L 620.081 105.220 619.791 96.360 L 619.500 87.500 606.742 87.220 L 593.984 86.940 594.242 146.220 L 594.500 205.500 607.178 205.779 L 619.856 206.059 620.238 172.779 C 620.560 144.747, 620.891 138.679, 622.336 134.294 C 624.517 127.676, 629.498 121.126, 634.471 118.336 C 639.062 115.761, 649.933 113.515, 653.489 114.408 L 656 115.038 656 100.519 L 656 86 649.750 86.052 C 646.095 86.083, 641.424 86.904, 638.500 88.031 M 457.471 88.220 C 457.201 88.924, 457.098 115.600, 457.240 147.500 L 457.500 205.500 470.500 205.500 L 483.500 205.500 483.500 146.500 L 483.500 87.500 470.730 87.220 C 461.069 87.008, 457.841 87.252, 457.471 88.220 M 962.472 88.216 C 962.202 88.922, 962.098 115.600, 962.240 147.500 L 962.500 205.500 973.500 205.500 L 984.500 205.500 984.500 146.500 L 984.500 87.500 973.732 87.216 C 965.676 87.003, 962.840 87.255, 962.472 88.216 M 710.879 111.605 C 693.899 117.498, 684.552 137.825, 689.091 158.987 C 693.004 177.235, 710.846 187.069, 730.773 181.962 C 759.336 174.641, 760.344 125.214, 732.184 112.757 C 726.092 110.062, 716.776 109.559, 710.879 111.605 M 888.138 111.166 C 872.255 113.962, 861.329 141.197, 868.067 161.199 C 874.118 179.160, 887.317 186.980, 903.224 182.029 C 910.727 179.693, 912.642 177.777, 917.813 167.431 C 924.355 154.341, 924.106 142.132, 917.007 128.015 C 910.415 114.904, 900.333 109.020, 888.138 111.166 M 29.086 168 L -0.232 197 26.634 196.959 L 53.500 196.918 76 176.108 C 88.375 164.662, 102.325 151.650, 107 147.191 L 115.500 139.085 86.952 139.042 L 58.404 139 29.086 168 M 169.128 140.681 C 169.882 141.606, 183.775 154.651, 200 169.670 L 229.500 196.977 255.750 196.988 C 270.188 196.995, 282.016 196.662, 282.035 196.250 C 282.054 195.838, 269.116 182.795, 253.285 167.266 L 224.500 139.033 196.128 139.016 C 169.668 139.001, 167.848 139.113, 169.128 140.681 M 115.268 162.758 C 106.045 171.425, 92.650 183.899, 85.500 190.478 C 78.350 197.058, 71.777 203.354, 70.894 204.470 C 69.566 206.148, 69.194 210.443, 68.744 229.250 L 68.201 252 71.351 251.968 C 73.985 251.941, 76.731 249.855, 88.135 239.218 C 95.635 232.223, 108.786 220.200, 117.360 212.500 L 132.948 198.500 132.974 172.750 C 132.988 158.588, 132.783 147, 132.518 147 C 132.252 147, 124.490 154.091, 115.268 162.758 M 150 172.323 L 150 197.645 158.253 205.573 C 162.791 209.933, 170.302 216.875, 174.942 221 C 179.582 225.125, 189.031 233.778, 195.939 240.230 C 206.820 250.391, 208.954 251.962, 211.893 251.980 L 215.287 252 214.603 228.750 L 213.919 205.500 210.187 202 C 208.134 200.075, 201.516 194, 195.481 188.500 C 180.850 175.166, 171.368 166.321, 160.385 155.763 C 155.371 150.943, 150.984 147, 150.635 147 C 150.286 147, 150 158.395, 150 172.323 M 808.231 176.252 C 803.655 177.719, 798.363 183.893, 797.548 188.715 C 795.670 199.832, 807.332 210.314, 818.017 207.113 C 830.345 203.419, 834.660 190.163, 826.480 181.110 C 821.575 175.681, 815.258 173.999, 808.231 176.252" stroke="none" fill="#000000" fill-rule="evenodd"/>
</svg>